<mxfile host="app.diagrams.net" modified="2023-08-25T12:17:49.901Z" agent="Mozilla/5.0 (X11; Linux x86_64) AppleWebKit/537.36 (KHTML, like Gecko) Chrome/116.0.0.0 Safari/537.36" etag="Lv7hx4dT1IPRVg9xHyPX" version="21.6.9" type="github">
  <diagram name="Page-1" id="BfyBlw8hVrpznepNKtYx">
    <mxGraphModel dx="1183" dy="639" grid="1" gridSize="10" guides="1" tooltips="1" connect="1" arrows="1" fold="1" page="1" pageScale="1" pageWidth="827" pageHeight="1169" math="0" shadow="0">
      <root>
        <mxCell id="0" />
        <mxCell id="1" parent="0" />
        <mxCell id="T3-9KYE1y5UxedfMjFBI-1" value="" style="shape=flexArrow;endArrow=classic;html=1;rounded=0;" edge="1" parent="1">
          <mxGeometry width="50" height="50" relative="1" as="geometry">
            <mxPoint x="400" y="400" as="sourcePoint" />
            <mxPoint x="490" y="400" as="targetPoint" />
          </mxGeometry>
        </mxCell>
        <mxCell id="T3-9KYE1y5UxedfMjFBI-2" value="" style="html=1;shadow=0;dashed=0;align=center;verticalAlign=middle;shape=mxgraph.arrows2.bendArrow;dy=15;dx=38;notch=0;arrowHead=55;rounded=1;" vertex="1" parent="1">
          <mxGeometry x="390" y="550" width="100" height="100" as="geometry" />
        </mxCell>
        <mxCell id="T3-9KYE1y5UxedfMjFBI-3" value="" style="html=1;shadow=0;dashed=0;align=center;verticalAlign=middle;shape=mxgraph.arrows2.arrow;dy=0;dx=10;notch=0;" vertex="1" parent="1">
          <mxGeometry x="150" y="480" width="100" height="30" as="geometry" />
        </mxCell>
        <mxCell id="T3-9KYE1y5UxedfMjFBI-4" value="" style="html=1;shadow=0;dashed=0;align=center;verticalAlign=middle;shape=mxgraph.arrows2.jumpInArrow;dy=15;dx=38;arrowHead=55;rotation=45;" vertex="1" parent="1">
          <mxGeometry x="540" y="450" width="100" height="100" as="geometry" />
        </mxCell>
        <mxCell id="T3-9KYE1y5UxedfMjFBI-5" value="" style="curved=1;endArrow=classic;html=1;rounded=0;strokeWidth=7;exitX=0.074;exitY=0.226;exitDx=0;exitDy=0;exitPerimeter=0;entryX=0.906;entryY=0.194;entryDx=0;entryDy=0;entryPerimeter=0;" edge="1" parent="1" source="T3-9KYE1y5UxedfMjFBI-6" target="T3-9KYE1y5UxedfMjFBI-6">
          <mxGeometry width="50" height="50" relative="1" as="geometry">
            <mxPoint x="120" y="660" as="sourcePoint" />
            <mxPoint x="280" y="640" as="targetPoint" />
            <Array as="points">
              <mxPoint x="160" y="610" />
              <mxPoint x="230" y="610" />
            </Array>
          </mxGeometry>
        </mxCell>
        <mxCell id="T3-9KYE1y5UxedfMjFBI-6" value="" style="ellipse;shape=doubleEllipse;whiteSpace=wrap;html=1;aspect=fixed;" vertex="1" parent="1">
          <mxGeometry x="120" y="610" width="160" height="160" as="geometry" />
        </mxCell>
        <mxCell id="T3-9KYE1y5UxedfMjFBI-9" value="" style="curved=1;endArrow=classic;html=1;rounded=0;strokeWidth=7;exitX=0.074;exitY=0.226;exitDx=0;exitDy=0;exitPerimeter=0;entryX=0.906;entryY=0.194;entryDx=0;entryDy=0;entryPerimeter=0;" edge="1" parent="1">
          <mxGeometry width="50" height="50" relative="1" as="geometry">
            <mxPoint x="390" y="806" as="sourcePoint" />
            <mxPoint x="523" y="801" as="targetPoint" />
            <Array as="points">
              <mxPoint x="418" y="770" />
              <mxPoint x="488" y="770" />
            </Array>
          </mxGeometry>
        </mxCell>
        <mxCell id="T3-9KYE1y5UxedfMjFBI-10" value="" style="curved=1;endArrow=classic;html=1;rounded=0;strokeWidth=7;exitX=0.074;exitY=0.226;exitDx=0;exitDy=0;exitPerimeter=0;entryX=0.906;entryY=0.194;entryDx=0;entryDy=0;entryPerimeter=0;" edge="1" parent="1">
          <mxGeometry width="50" height="50" relative="1" as="geometry">
            <mxPoint x="340" y="886" as="sourcePoint" />
            <mxPoint x="473" y="881" as="targetPoint" />
            <Array as="points">
              <mxPoint x="368" y="850" />
              <mxPoint x="438" y="850" />
            </Array>
          </mxGeometry>
        </mxCell>
      </root>
    </mxGraphModel>
  </diagram>
</mxfile>
